# xmcd
#
# Track frame offsets: 
#        150
#        19868
#        40318
#        55243
#        67193
#        82645
#        95143
#        110678
#        124248
#        142348
#
# Disc length: 2214 seconds
#
# Revision: 2
# Processed by: cddbd v1.5.2PL0 Copyright (c) Steve Scherf et al.
# Submitted via: ExactAudioCopy v0.95b4
#
DISCID=9308a40a
DTITLE=Foster And Lloyd - Foster And Lloyd
DYEAR=1987
DGENRE=Country
TTITLE0=Turn Around
TTITLE1=Crazy Over You
TTITLE2=What Do You Want From Me This Time?
TTITLE3=Token Of Love
TTITLE4=Sure Thing
TTITLE5=Hard To Say No
TTITLE6=The Part I Know By Heart
TTITLE7=Don't Go Out With Him
TTITLE8=Texas In 1880
TTITLE9=You Can Come Crying To Me
EXTD=
EXTT0=
EXTT1=
EXTT2=
EXTT3=
EXTT4=
EXTT5=
EXTT6=
EXTT7=
EXTT8=
EXTT9=
PLAYORDER=
